<svg width="66" height="54" viewBox="0 0 66 54" fill="none" xmlns="http://www.w3.org/2000/svg">
<g clip-path="url(#clip0_303_16063)">
<path d="M44.0116 49.8558C39.8445 49.8558 36.328 47.0929 35.1789 43.294L53.2044 40.1858C53.2044 40.1858 53.2044 40.2134 53.2044 40.2272L57.3162 39.5227C56.7347 32.6985 50.9893 27.3247 43.9978 27.3247C36.6187 27.3247 30.624 33.3063 30.624 40.6693C30.624 48.0323 36.6187 54.0139 43.9978 54.0139C50.297 54.0139 55.5718 49.6486 56.9839 43.7913L52.3183 44.5925C50.837 47.7008 47.6666 49.8696 43.984 49.8696L44.0116 49.8558ZM44.0116 31.4552C47.4728 31.4552 50.477 33.3615 52.0553 36.1797L34.9297 39.1359C35.6634 34.7844 39.443 31.4552 44.0116 31.4552Z" fill="white"/>
<path d="M57.2192 24.617H53.0659V13.3446C53.0659 8.27475 48.9264 4.14428 43.8455 4.14428C38.7645 4.14428 34.625 8.27475 34.625 13.3446V24.617H30.4717V13.3446C30.4717 5.98158 36.4802 0 43.8455 0C51.2107 0 57.2192 5.98158 57.2192 13.3446V24.617Z" fill="white"/>
<path d="M13.3738 0C5.99466 0 0 5.98158 0 13.3446V24.617H4.15335V22.0476L22.5942 18.8565V24.6032H26.7476V13.3446C26.7476 5.98158 20.7529 0 13.3738 0ZM4.15335 17.848V13.3446C4.15335 8.27475 8.29285 4.14428 13.3738 4.14428C18.4547 4.14428 22.5942 8.27475 22.5942 13.3446V14.6569L4.15335 17.848Z" fill="white"/>
<path d="M26.7476 51.9281H22.5942V40.6556C22.5942 35.5858 18.4547 31.4553 13.3738 31.4553C8.29285 31.4553 4.15335 35.5858 4.15335 40.6556V51.9281H0V40.6556C0 33.2926 5.99466 27.311 13.3738 27.311C20.7529 27.311 26.7476 33.2926 26.7476 40.6556V51.9281Z" fill="white"/>
<path d="M62.1755 53.0194C63.85 53.0194 65.2074 51.6649 65.2074 49.9941C65.2074 48.3232 63.85 46.9688 62.1755 46.9688C60.501 46.9688 59.1436 48.3232 59.1436 49.9941C59.1436 51.6649 60.501 53.0194 62.1755 53.0194Z" fill="white"/>
</g>
<defs>
<clipPath id="clip0_303_16063">
<rect width="65.2076" height="54" fill="white"/>
</clipPath>
</defs>
</svg>
