<?xml version="1.0" encoding="utf-8"?>
<!-- Generator: Adobe Illustrator 26.5.0, SVG Export Plug-In . SVG Version: 6.00 Build 0)  -->
<svg version="1.1" id="Layer_1" xmlns="http://www.w3.org/2000/svg" xmlns:xlink="http://www.w3.org/1999/xlink" x="0px" y="0px" viewBox="0 0 615.59 188.66" style="enable-background: new 0 0 615.59 188.66" xml:space="preserve">
<style>.st0 {
  fill: #0a9ba5;
}

</style>
<path class="st0" d="M430.62,105.57c-2.21,0.53-4.47,0.95-6.63,1.62c-9.67,3.02-17.97,8.33-24.84,15.72
	c-7.47,8.05-14.98,16.1-21.92,24.59c-3.37,4.12-5.62,9.19-8.11,13.97c-1.61,3.09-4.7,10.79-8.23,12
	c-6.58,2.25-12.99-3.09-11.8-10.04c0.77-4.49,3.7-13.53,4.95-17.92c1.84-6.48,3.83-12.92,5.74-19.37c0.11-0.36,0.11-0.75-0.32-1.39
	c-1.22,1.63-2.48,3.22-3.65,4.88c-9.75,13.82-21.33,26-33.64,37.51c-4.07,3.8-8.84,6.6-14.6,6.98c-9.63,0.63-17.66-6.46-18.53-16.1
	c-0.69-7.61,1.27-14.71,4.08-21.62c3.38-8.32,7.15-16.48,10.35-24.86c1.28-3.36,1.79-7.09,2.15-10.7c0.29-2.95-0.81-3.78-3.76-3.44
	c-6.62,0.78-12.38,3.8-17.86,7.32c-9.26,5.94-16.85,13.8-24.32,21.77c-11.4,12.17-20.04,26.33-29.07,40.23
	c-1.94,2.98-4.19,5.82-6.63,8.42c-3.72,3.97-8.5,4.58-12.95,2.06c-4.31-2.44-6.57-7.21-4.91-12.19c2.44-7.32,5.31-14.51,8.26-21.65
	c2.06-4.99,4.54-9.8,6.39-15.07c-0.58,0.58-1.17,1.15-1.72,1.75c-11.05,12.12-21.91,24.42-33.22,36.3
	c-7.19,7.55-15.23,14.26-24.94,18.48c-6.86,2.98-13.99,4.87-21.61,3.26c-10.25-2.17-17.14-8.14-20.43-18.08
	c-2.64-7.95-2.36-16.12-1.09-24.23c1-6.4,2.53-12.72,3.8-19.08c0.09-0.45-0.01-0.93-0.56-1.75c-2.09,2.41-4.16,4.84-6.28,7.23
	c-6.67,7.54-12.85,15.61-20.16,22.47c-11.1,10.43-23.09,19.97-37.05,26.44c-9.22,4.27-18.96,5.68-28.94,2.45
	c-8.6-2.79-14.42-8.95-19.46-16.09c-8.36-11.83-10.55-25-8.28-39.02C5.7,98.38,17.84,71.33,36.45,47.47
	c10.95-14.03,23.42-26.92,38.97-36.2c8.09-4.83,16.98-7.56,26.19-9.36c8.14-1.59,16.3-2.56,24.57-1.44
	c11.58,1.58,22.64,4.52,30.73,13.74c2.5,2.84,4.29,6.3,6.4,9.48c0.31,0.46,0.59,0.94,1.14,1.82c1.02-1.43,1.8-2.64,2.7-3.76
	c1.46-1.8,2.79-3.78,4.53-5.27c3.43-2.92,7.95-2.96,11.29-0.45c3.31,2.49,4.81,7.08,2.83,10.98c-2.78,5.47-6.11,10.67-9.2,15.98
	c-0.21,0.36-0.44,0.71-0.69,1.04c-4.89,6.44-20.3,41.71-20.74,42.76c-6.03,14.53-12.03,29.08-15.77,44.41
	c-2.23,9.14-4.49,18.28-3.94,27.83c0.53,9.34,5.72,13.17,14.59,10.04c4.16-1.47,8.14-3.81,11.79-6.34
	c8.6-5.99,15.75-13.64,22.6-21.46c12.95-14.78,25.53-29.87,38.26-44.84c3.69-4.34,7.44-8.58,13.39-9.89
	c0.77-0.17,1.44-0.81,2.15-1.25c5.29-3.27,11.55-0.44,12.53,5.72c0.61,3.86,0.16,7.61-1.33,11.26c-1.53,3.74-2.87,7.56-4.29,11.34
	c0.21,0.14,0.43,0.29,0.64,0.43c0.78-0.75,1.59-1.48,2.35-2.26c8.74-8.95,17.56-17.8,28.46-24.19c7-4.1,14.35-7.23,22.47-8.56
	c13.73-2.25,24.25,6.21,24.89,20.08c0.43,9.36-2.48,17.89-5.96,26.31c-2.74,6.61-5.82,13.07-8.49,19.7
	c-1.15,2.86-1.66,5.99-2.45,8.99c0.27,0.18,0.53,0.37,0.8,0.55c0.89-0.59,1.88-1.07,2.64-1.79c12.31-11.76,23.79-24.21,33.44-38.32
	c7.1-10.37,14.56-20.49,21.88-30.72c2.34-3.26,5.18-5.66,9.53-5.37c4.12,0.27,7.31,3.2,8.08,7.25c0.31,1.61,0.82,3.21,1.41,4.74
	c1.66,4.32,0.75,8.53-0.43,12.74c-0.7,2.48-1.49,4.94-2.18,7.42c-0.21,0.74-0.21,1.55,0.25,2.6c2.33-2.2,4.69-4.37,7-6.59
	c10-9.57,21.85-15.75,35.28-18.72c4.84-1.07,9.91-1.32,14.83,0.29c7.02,2.31,11.18,8.92,10.52,16.28
	c-0.65,7.23-3.06,13.95-5.46,20.69c-2.99,8.4-5.79,16.85-6.21,25.87c-0.07,1.49-0.09,3.01,0.14,4.48c0.81,5.27,4.83,7.93,9.79,5.9
	c5.05-2.07,10.01-4.54,14.61-7.45c4.48-2.83,8.55-6.35,12.63-9.76c1.03-0.86,1.95-2.45,2.01-3.75c0.57-11.82,3.15-23.21,6.83-34.41
	c6.48-19.69,19.78-32.17,39.76-37.39c8.3-2.17,15.47,0.79,17.79,4.91c1.66,2.75,3.88,7.57,3.44,10.74
	c-0.78,5.67-2.91,10.03-5.77,13.91c-2.14,2.89-4.68,6.34-9.25,12.11c-11.29,13.36-19.14,24.82-29.99,35.95
	c-1.31,1.35-3.46,2.43-2.87,4.89c0.76,3.19,2.23,6.15,5.33,7.44c3.03,1.27,6.32,2.07,9.57,2.65c17.29,3.06,34.01-1.2,46.78-12.85
	c14.09-12.84,26.79-25.04,39.92-39.97c4.76-4.59,10.84-4.8,14.59-0.06c2.53,3.2,2.47,8.08-0.56,11.8
	c-2.47,3.02-31.13,33.46-43.66,44.54c-10.02,8.86-22.93,12.94-36.29,15c-8.44,1.3-16.97,1.06-25.37-0.56
	c-3.9-0.75-7.78-1.83-11.5-3.2c-5.39-2-9.56-5.72-12.53-10.63c-1.31-2.16-2.26-2.17-4.15-0.66c-7.06,5.63-14.67,10.42-23.17,13.58
	c-10.16,3.78-19.93,3.24-28.29-4.27c-7.51-6.76-9.03-15.71-8.23-25.37c1.02-12.27,5.16-23.68,9.18-35.15
	c0.81-2.32,1.39-4.73,2.07-7.1C431.06,106.08,430.84,105.83,430.62,105.57z M116.9,18.57c-11.59,0.7-22.73,3.15-32.9,9.02
	c-7.28,4.2-13.22,10.07-19.1,15.97c-7.7,7.73-15.42,15.48-21.11,24.88c-11.14,18.39-20.09,37.69-24.24,59
	c-2.24,11.49-1.27,22.13,6.24,31.69c3.97,5.06,8.68,8.37,15.32,7.52c3.02-0.39,6.12-1.15,8.86-2.44
	c12.17-5.75,22.57-14.16,32.3-23.24c6.47-6.05,11.88-13.25,17.75-19.94c11.37-12.95,22.69-25.91,31.46-40.9
	c6-10.27,12.59-20.2,18.78-30.35c0.81-1.32,1.3-3.15,1.16-4.66c-0.25-2.63-0.96-5.24-1.76-7.77c-2.24-7.08-5.82-13.11-13.38-15.67
	C129.99,19.54,123.59,18.2,116.9,18.57z M522.38,88.72c-9.77,1.56-23.5,20.61-20.94,28.86C508.58,107.75,515.48,98.23,522.38,88.72z
	"></path>
</svg>
