<svg width="176" height="54" viewBox="0 0 176 54" fill="none" xmlns="http://www.w3.org/2000/svg">
<g clip-path="url(#clip0_279_15564)">
<path d="M123.116 30.2171C122.484 30.3688 121.838 30.4891 121.221 30.6808C118.456 31.5452 116.083 33.0651 114.119 35.1804C111.983 37.4845 109.836 39.7886 107.852 42.2187C106.888 43.398 106.245 44.8492 105.533 46.2174C105.073 47.1018 104.189 49.3058 103.18 49.6521C101.299 50.2961 99.4662 48.7677 99.8064 46.7784C100.027 45.4932 100.864 42.9057 101.222 41.6491C101.748 39.7944 102.317 37.9511 102.863 36.1049C102.894 36.0018 102.894 35.8902 102.771 35.707C102.422 36.1736 102.062 36.6287 101.728 37.1038C98.9401 41.0595 95.6294 44.5458 92.1099 47.8403C90.9462 48.9279 89.5825 49.7294 87.9357 49.8382C85.1824 50.0185 82.8866 47.9891 82.6378 45.2299C82.4406 43.0517 83.0009 41.0194 83.8043 39.0416C84.7707 36.6602 85.8486 34.3245 86.7634 31.9259C87.1294 30.9642 87.2752 29.8966 87.3781 28.8633C87.4611 28.0189 87.1466 27.7813 86.3031 27.8787C84.4105 28.1019 82.7636 28.9663 81.1969 29.9738C78.5494 31.674 76.3794 33.9238 74.2437 36.2051C70.9844 39.6885 68.5142 43.7415 65.9324 47.7201C65.3778 48.573 64.7345 49.3859 64.0369 50.1301C62.9733 51.2664 61.6067 51.441 60.3344 50.7197C59.1022 50.0213 58.456 48.656 58.9306 47.2306C59.6282 45.1354 60.4488 43.0774 61.2922 41.0337C61.8812 39.6055 62.5902 38.2287 63.1191 36.7203C62.9533 36.8863 62.7846 37.0494 62.6274 37.2212C59.4681 40.6903 56.3632 44.2109 53.1296 47.6113C51.074 49.7723 48.7753 51.6929 45.9992 52.9008C44.0379 53.7538 41.9994 54.2947 39.8208 53.8339C36.8903 53.2128 34.9204 51.504 33.9797 48.6589C33.225 46.3834 33.305 44.0449 33.6681 41.7236C33.954 39.8917 34.3914 38.0827 34.7545 36.2623C34.7803 36.1335 34.7517 35.9961 34.5944 35.7614C33.9969 36.4512 33.4051 37.1468 32.799 37.8308C30.892 39.989 29.1251 42.2989 27.0351 44.2624C23.8616 47.2478 20.4336 49.9784 16.4424 51.8303C13.8063 53.0525 11.0216 53.4561 8.16828 52.5316C5.70951 51.733 4.04554 49.9698 2.60458 47.9261C0.21442 44.5401 -0.411711 40.7704 0.237292 36.7575C1.62965 28.1592 5.10053 20.4167 10.4212 13.5872C13.5519 9.57143 17.1171 5.88194 21.5629 3.22573C23.8759 1.84324 26.4176 1.06184 29.0508 0.546625C31.378 0.0915201 33.711 -0.186122 36.0754 0.134454C39.3862 0.586697 42.5483 1.42821 44.8613 4.06724C45.576 4.88013 46.0878 5.87049 46.6911 6.7807C46.7797 6.91236 46.8597 7.04975 47.017 7.30163C47.3086 6.89233 47.5316 6.54599 47.7889 6.22541C48.2064 5.7102 48.5866 5.14347 49.0841 4.71698C50.0647 3.88119 51.357 3.86975 52.312 4.58818C53.2583 5.30089 53.6872 6.61468 53.1211 7.73098C52.3262 9.29665 51.3742 10.785 50.4907 12.3049C50.4307 12.408 50.3649 12.5081 50.2935 12.6026C48.8954 14.4459 44.4896 24.5412 44.3638 24.8418C42.6398 29.0007 40.9244 33.1653 39.8551 37.5532C39.2175 40.1693 38.5714 42.7855 38.7286 45.519C38.8802 48.1923 40.364 49.2886 42.9 48.3927C44.0893 47.9719 45.2272 47.3022 46.2708 46.578C48.7296 44.8635 50.7738 42.6738 52.7322 40.4355C56.4347 36.2051 60.0314 31.8859 63.6709 27.601C64.7259 26.3588 65.7981 25.1452 67.4992 24.7702C67.7193 24.7215 67.9109 24.5384 68.1139 24.4124C69.6263 23.4764 71.4161 24.2865 71.6963 26.0496C71.8707 27.1545 71.742 28.2278 71.316 29.2726C70.8786 30.3431 70.4955 31.4365 70.0895 32.5184C70.1495 32.5585 70.2124 32.6014 70.2725 32.6415C70.4955 32.4268 70.7271 32.2179 70.9443 31.9946C73.4432 29.4329 75.9648 26.8997 79.0812 25.0707C81.0825 23.8972 83.1839 23.0013 85.5055 22.6206C89.4309 21.9766 92.4387 24.3981 92.6216 28.3681C92.7446 31.0472 91.9126 33.4887 90.9176 35.8988C90.1343 37.7908 89.2537 39.6398 88.4903 41.5375C88.1615 42.3561 88.0157 43.252 87.7898 44.1107C87.867 44.1622 87.9414 44.2166 88.0186 44.2681C88.273 44.0993 88.5561 43.9619 88.7734 43.7558C92.2928 40.3897 95.575 36.8262 98.334 32.7875C100.364 29.8193 102.497 26.9226 104.59 23.9945C105.259 23.0614 106.071 22.3745 107.314 22.4575C108.492 22.5348 109.404 23.3734 109.624 24.5326C109.713 24.9935 109.859 25.4514 110.028 25.8894C110.502 27.1259 110.242 28.3309 109.905 29.5359C109.704 30.2458 109.479 30.9499 109.281 31.6597C109.221 31.8715 109.221 32.1034 109.353 32.4039C110.019 31.7742 110.694 31.1531 111.354 30.5177C114.213 27.7785 117.601 26.0096 121.441 25.1595C122.825 24.8532 124.274 24.7817 125.681 25.2425C127.688 25.9037 128.877 27.7956 128.688 29.9023C128.503 31.9717 127.814 33.8952 127.127 35.8244C126.273 38.2287 125.472 40.6473 125.352 43.2291C125.332 43.6556 125.326 44.0907 125.392 44.5114C125.624 46.0199 126.773 46.7812 128.191 46.2002C129.635 45.6077 131.053 44.9007 132.368 44.0678C133.649 43.2577 134.813 42.2502 135.979 41.2742C136.274 41.028 136.537 40.5729 136.554 40.2008C136.717 36.8176 137.454 33.5574 138.506 30.3517C140.359 24.7158 144.162 21.1437 149.874 19.6496C152.247 19.0284 154.297 19.8757 154.96 21.0549C155.435 21.8421 156.07 23.2217 155.944 24.129C155.721 25.752 155.112 26.9999 154.294 28.1105C153.682 28.9377 152.956 29.9252 151.649 31.5767C148.422 35.4008 146.177 38.6809 143.075 41.8667C142.701 42.2531 142.086 42.5622 142.255 43.2663C142.472 44.1794 142.892 45.0266 143.779 45.3959C144.645 45.7594 145.585 45.9884 146.515 46.1544C151.458 47.0302 156.238 45.8109 159.889 42.4763C163.918 38.8012 167.549 35.3092 171.303 31.0358C172.663 29.722 174.402 29.6619 175.474 31.0186C176.197 31.9345 176.18 33.3313 175.314 34.3961C174.608 35.2605 166.414 43.9733 162.831 47.1447C159.966 49.6807 156.275 50.8485 152.456 51.4382C150.043 51.8103 147.604 51.7416 145.202 51.2779C144.087 51.0632 142.978 50.7541 141.914 50.362C140.373 49.7895 139.181 48.7247 138.332 47.3193C137.958 46.7011 137.686 46.6982 137.146 47.1304C135.127 48.7419 132.951 50.1129 130.521 51.0174C127.616 52.0994 124.823 51.9448 122.433 49.7952C120.286 47.8603 119.851 45.2986 120.08 42.5336C120.372 39.0216 121.555 35.7557 122.705 32.4726C122.936 31.8086 123.102 31.1188 123.296 30.4404C123.242 30.3631 123.179 30.2916 123.116 30.2171ZM33.4222 5.3152C30.1086 5.51556 26.9236 6.21682 24.016 7.89699C21.9346 9.09915 20.2363 10.7793 18.5552 12.4681C16.3537 14.6806 14.1465 16.8989 12.5198 19.5895C9.33478 24.8532 6.77593 30.3774 5.58943 36.477C4.949 39.7657 5.22633 42.8112 7.37347 45.5476C8.50851 46.9959 9.85512 47.9433 11.7535 47.7C12.617 47.5884 13.5033 47.3709 14.2866 47.0016C17.7661 45.3558 20.7395 42.9486 23.5214 40.3497C25.3712 38.618 26.9179 36.5571 28.5962 34.6422C31.8469 30.9356 35.0833 27.226 37.5907 22.9355C39.3062 19.9959 41.1903 17.1536 42.96 14.2484C43.1916 13.8706 43.3317 13.3468 43.2917 12.9146C43.2202 12.1618 43.0172 11.4147 42.7885 10.6906C42.148 8.66408 41.1245 6.93812 38.9631 6.20538C37.1647 5.59285 35.3349 5.2093 33.4222 5.3152ZM149.351 25.3942C146.558 25.8407 142.632 31.2934 143.364 33.6548C145.405 30.8411 147.378 28.1162 149.351 25.3942Z" fill="white"/>
</g>
<defs>
<clipPath id="clip0_279_15564">
<rect width="176" height="54" fill="white"/>
</clipPath>
</defs>
</svg>
