<svg width="114" height="24" viewBox="0 0 114 24" fill="none" xmlns="http://www.w3.org/2000/svg">
<path d="M94.4988 20.2627C90.7535 20.2627 87.593 17.7795 86.5602 14.3652L102.761 11.5717C102.761 11.5717 102.761 11.5965 102.761 11.6089L106.456 10.9757C105.934 4.8424 100.77 0.0126953 94.4863 0.0126953C87.8543 0.0126953 82.4666 5.38869 82.4666 12.0062C82.4666 18.6238 87.8543 23.9998 94.4863 23.9998C100.148 23.9998 104.889 20.0764 106.158 14.8122L101.964 15.5323C100.633 18.3258 97.7837 20.2751 94.4739 20.2751L94.4988 20.2627ZM94.4988 3.72499C97.6095 3.72499 100.31 5.43835 101.728 7.97115L86.3363 10.6281C86.9957 6.71717 90.3926 3.72499 94.4988 3.72499Z" fill="#0A9BA5"/>
<path d="M51.4265 22.1248H47.6937V11.9936C47.6937 7.437 43.9733 3.72471 39.4067 3.72471C34.8402 3.72471 31.1198 7.437 31.1198 11.9936V22.1248H27.387V11.9936C27.387 5.37599 32.7872 0 39.4067 0C46.0263 0 51.4265 5.37599 51.4265 11.9936V22.1248Z" fill="#0A9BA5"/>
<path d="M12.0198 0C5.38775 0 0 5.37599 0 11.9936V22.1248H3.73285V19.8154L20.3067 16.9474V22.1123H24.0396V11.9936C24.0396 5.37599 18.6518 0 12.0198 0ZM3.73285 16.0411V11.9936C3.73285 7.437 7.45326 3.72471 12.0198 3.72471C16.5863 3.72471 20.3067 7.437 20.3067 11.9936V13.173L3.73285 16.0411Z" fill="#0A9BA5"/>
<path d="M78.9827 22.1248H75.2498V11.9936C75.2498 7.437 71.5294 3.72471 66.9629 3.72471C62.3964 3.72471 58.676 7.437 58.676 11.9936V22.1248H54.9431V11.9936C54.9431 5.37599 60.3309 0 66.9629 0C73.5949 0 78.9827 5.37599 78.9827 11.9936V22.1248Z" fill="#0A9BA5"/>
<path d="M110.824 23.1051C112.329 23.1051 113.549 21.8877 113.549 20.386C113.549 18.8843 112.329 17.667 110.824 17.667C109.319 17.667 108.099 18.8843 108.099 20.386C108.099 21.8877 109.319 23.1051 110.824 23.1051Z" fill="#0A9BA5"/>
</svg>
