<?xml version="1.0" encoding="utf-8"?>
<!-- Generator: Adobe Illustrator 26.5.0, SVG Export Plug-In . SVG Version: 6.00 Build 0)  -->
<svg version="1.1" id="Layer_1" xmlns="http://www.w3.org/2000/svg" xmlns:xlink="http://www.w3.org/1999/xlink" x="0px" y="0px"
	 viewBox="0 0 28 29" style="enable-background:new 0 0 28 29;" xml:space="preserve">
<style type="text/css">
	.st0{fill:#FFFFFF;}
</style>
<path class="st0" d="M19.6,4.88c0-0.15-0.06-0.3-0.17-0.41s-0.25-0.17-0.41-0.17h-2.88c-1.45-0.07-2.87,0.43-3.95,1.4
	c-1.08,0.97-1.73,2.33-1.81,3.78v3.11H7.49c-0.15,0-0.3,0.06-0.41,0.17c-0.11,0.11-0.17,0.25-0.17,0.41v3c0,0.15,0.06,0.3,0.17,0.41
	c0.11,0.11,0.25,0.17,0.41,0.17h2.88v7.72c0,0.15,0.06,0.3,0.17,0.41c0.11,0.11,0.25,0.17,0.41,0.17h3.46c0.15,0,0.3-0.06,0.41-0.17
	c0.11-0.11,0.17-0.25,0.17-0.41v-7.72h3.02c0.13,0,0.25-0.04,0.36-0.12c0.1-0.08,0.18-0.19,0.21-0.31l0.83-3
	c0.02-0.09,0.03-0.17,0.01-0.26c-0.02-0.09-0.05-0.17-0.11-0.24c-0.05-0.07-0.12-0.13-0.2-0.17c-0.08-0.04-0.17-0.06-0.25-0.06
	h-3.86V9.49c0.03-0.29,0.16-0.55,0.38-0.74c0.21-0.19,0.49-0.3,0.78-0.3h2.88c0.15,0,0.3-0.06,0.41-0.17
	c0.11-0.11,0.17-0.25,0.17-0.41V4.88z"/>
</svg>
