<?xml version="1.0" encoding="utf-8"?>
<!-- Generator: Adobe Illustrator 26.5.0, SVG Export Plug-In . SVG Version: 6.00 Build 0)  -->
<svg version="1.1" id="Layer_1" xmlns="http://www.w3.org/2000/svg" xmlns:xlink="http://www.w3.org/1999/xlink" x="0px" y="0px" viewBox="0 0 29 29" style="enable-background: new 0 0 29 29" xml:space="preserve">
<style>.st0 {
  fill: #fff;
}

</style>
<path class="st0" d="M18.31,10.53c-0.88,0-1.76,0.17-2.58,0.5c-0.82,0.34-1.56,0.83-2.19,1.45c-0.63,0.62-1.12,1.36-1.46,2.18
	s-0.52,1.69-0.52,2.57v6.78c0,0.28,0.11,0.54,0.3,0.73c0.19,0.19,0.46,0.3,0.73,0.3h2.42c0.28,0,0.54-0.11,0.73-0.3
	c0.19-0.19,0.3-0.46,0.3-0.73v-6.78c0-0.31,0.07-0.63,0.19-0.91c0.13-0.29,0.32-0.54,0.55-0.75s0.51-0.37,0.81-0.46
	c0.3-0.1,0.62-0.13,0.93-0.09c0.56,0.07,1.08,0.34,1.45,0.77c0.37,0.42,0.57,0.97,0.57,1.54v6.7c0,0.28,0.11,0.54,0.3,0.73
	c0.19,0.19,0.46,0.3,0.73,0.3h2.42c0.28,0,0.54-0.11,0.73-0.3c0.19-0.19,0.3-0.46,0.3-0.73v-6.78c0-0.88-0.18-1.76-0.52-2.57
	c-0.34-0.82-0.84-1.56-1.46-2.18c-0.63-0.62-1.37-1.12-2.19-1.45S19.2,10.53,18.31,10.53z"></path>
<path class="st0" d="M8.45,11.57H5.34c-0.57,0-1.04,0.46-1.04,1.04v11.41c0,0.57,0.46,1.04,1.04,1.04h3.11
	c0.57,0,1.04-0.46,1.04-1.04V12.61C9.49,12.03,9.03,11.57,8.45,11.57z"></path>
<path class="st0" d="M6.9,9.49c1.43,0,2.59-1.16,2.59-2.59c0-1.43-1.16-2.59-2.59-2.59C5.47,4.31,4.3,5.47,4.3,6.9
	C4.3,8.33,5.47,9.49,6.9,9.49z"></path>
</svg>
