<svg width="41" height="33" viewBox="0 0 41 33" fill="none" xmlns="http://www.w3.org/2000/svg">
<g clip-path="url(#clip0_251_14602)">
<path d="M-0.215999 33.592V22.648C-0.215999 18.52 0.456001 14.68 1.8 11.128C3.24 7.47999 5.688 3.92799 9.144 0.471998L15.048 5.224C12.36 8.008 10.536 10.6 9.576 13C8.616 15.304 8.136 17.752 8.136 20.344L4.536 17.608H15.768V33.592H-0.215999ZM24.984 33.592V22.648C24.984 18.52 25.656 14.68 27 11.128C28.44 7.47999 30.888 3.92799 34.344 0.471998L40.248 5.224C37.56 8.008 35.736 10.6 34.776 13C33.816 15.304 33.336 17.752 33.336 20.344L29.736 17.608H40.968V33.592H24.984Z" fill="#25d1da"/>
</g>
<defs>
<clipPath id="clip0_251_14602">
<rect width="41" height="33" fill="white"/>
</clipPath>
</defs>
</svg>
