<svg width="41" height="33" viewBox="0 0 41 33" fill="none" xmlns="http://www.w3.org/2000/svg">
<g clip-path="url(#clip0_251_14604)">
<path d="M6.552 32.456L0.648 27.848C3.336 25.064 5.16 22.472 6.12 20.072C7.08 17.576 7.56 15.08 7.56 12.584L11.304 15.32H-0.0719996V-0.520006H15.912V10.424C15.912 14.552 15.24 18.392 13.896 21.944C12.552 25.496 10.104 29 6.552 32.456ZM31.752 32.456L25.848 27.848C28.536 25.064 30.36 22.472 31.32 20.072C32.28 17.576 32.76 15.08 32.76 12.584L36.504 15.32H25.128V-0.520006H41.112V10.424C41.112 14.552 40.44 18.392 39.096 21.944C37.752 25.496 35.304 29 31.752 32.456Z" fill="#E97676"/>
</g>
<defs>
<clipPath id="clip0_251_14604">
<rect width="41" height="33" fill="white"/>
</clipPath>
</defs>
</svg>
