<?xml version="1.0" encoding="utf-8"?>
<!-- Generator: Adobe Illustrator 26.5.0, SVG Export Plug-In . SVG Version: 6.00 Build 0)  -->
<svg version="1.1" id="Layer_2_00000090985246160103265070000006884864794243682975_"
	 xmlns="http://www.w3.org/2000/svg" xmlns:xlink="http://www.w3.org/1999/xlink" x="0px" y="0px" viewBox="0 0 200 200"
	 style="enable-background:new 0 0 200 200;" xml:space="preserve">
<style type="text/css">
	.st0{fill:#FFFFFF;}
</style>
<path class="st0" d="M190.9,107.05c-3.08-2.66-7.72-2.32-10.38,0.76c0,0-17.57,20.34-25.92,29.87c-5.5,6.28-11.24,12.42-18.14,17.22
	c-2.93,2.03-6.12,3.91-9.46,5.09c-7.12,2.51-11.29-0.56-11.71-8.06c-0.44-7.67,1.37-15,3.16-22.34c3-12.3,7.82-23.98,12.66-35.65
	c0.35-0.84,12.72-29.15,16.65-34.32c0.2-0.26,0.39-0.55,0.55-0.83c2.48-4.26,5.15-8.44,7.38-12.83c1.59-3.13,0.39-6.81-2.27-8.81
	c-2.68-2.01-6.31-1.98-9.06,0.36c-1.4,1.2-2.46,2.79-3.64,4.23c-0.72,0.9-1.35,1.87-2.17,3.02c-0.44-0.71-0.67-1.09-0.92-1.46
	c-1.69-2.55-3.13-5.33-5.14-7.61c-6.49-7.4-15.37-9.76-24.67-11.03c-6.64-0.9-13.19-0.12-19.72,1.16
	c-7.39,1.44-14.53,3.64-21.02,7.51C54.6,40.78,44.59,51.12,35.8,62.39c-14.94,19.15-24.68,40.86-28.59,64.97
	c-1.82,11.25-0.06,21.82,6.65,31.32c4.05,5.73,8.72,10.68,15.62,12.91c8.01,2.59,15.83,1.46,23.23-1.97
	c11.2-5.19,20.83-12.85,29.74-21.22c5.87-5.51,10.83-11.98,16.18-18.04c1.7-1.92,3.36-3.87,5.04-5.8c0.44,0.66,0.52,1.04,0.45,1.4
	c-1.02,5.1-2.25,10.18-3.05,15.31c-1.02,6.51-1.24,13.07,0.87,19.45c2.64,7.98,8.17,12.77,16.4,14.51
	c6.12,1.29,11.84-0.22,17.35-2.62c7.79-3.39,14-9.02,20.02-14.83c15.03-14.52,35.94-40.37,35.94-40.37
	c2.66-3.08,2.32-7.72-0.76-10.38L190.9,107.05z M86.85,121.43c-4.71,5.37-9.05,11.15-14.25,16c-7.81,7.29-16.16,14.04-25.93,18.65
	c-2.2,1.04-4.69,1.65-7.11,1.96c-5.33,0.68-9.11-1.97-12.3-6.04c-6.03-7.67-6.81-16.21-5.01-25.44c3.33-17.1,10.51-32.6,19.46-47.36
	c4.57-7.54,10.76-13.77,16.94-19.97c4.72-4.74,9.49-9.45,15.33-12.82c8.16-4.71,17.1-6.68,26.41-7.24c5.37-0.3,10.51,0.78,15.56,2.5
	c6.07,2.05,8.94,6.89,10.74,12.58c0.64,2.03,1.21,4.13,1.41,6.24c0.11,1.21-0.28,2.68-0.93,3.74c-4.97,8.15-10.26,16.12-15.07,24.36
	c-7.04,12.03-16.13,22.43-25.25,32.83V121.43z"/>
</svg>
